<svg width="148" height="28" viewBox="0 0 148 28" fill="none" xmlns="http://www.w3.org/2000/svg">
<path d="M16.9064 5.33886C16.9064 2.39029 19.2967 0 22.2452 0C25.1938 0 27.5841 2.39029 27.5841 5.33886C27.5841 8.28744 25.1938 10.6777 22.2452 10.6777C19.2967 10.6777 16.9064 8.28744 16.9064 5.33886Z" fill="#58FF81"/>
<path d="M22.5684 13.0436V16.8856C22.5684 18.5877 22.5674 19.7918 22.4893 20.7325C22.4124 21.659 22.2668 22.2233 22.0368 22.6659C21.5888 23.5283 20.8857 24.2314 20.0234 24.6794C19.5807 24.9093 19.0165 25.055 18.09 25.1319C17.1493 25.21 15.9452 25.211 14.243 25.211H10.6982C8.99605 25.211 7.79196 25.21 6.85126 25.1319C5.92476 25.055 5.36053 24.9093 4.91786 24.6794C4.0555 24.2314 3.35237 23.5283 2.90441 22.6659C2.67446 22.2233 2.52884 21.659 2.4519 20.7325C2.37378 19.7918 2.37283 18.5877 2.37283 16.8856V13.3408C2.37283 11.6386 2.37378 10.4345 2.4519 9.49384C2.52884 8.56734 2.67446 8.00311 2.90441 7.56044C3.35237 6.69808 4.0555 5.99495 4.91786 5.54699C5.36053 5.31704 5.92476 5.17142 6.85126 5.09448C7.79196 5.01636 8.99605 5.01541 10.6982 5.01541H14.5402C14.5745 4.1837 14.7405 3.38599 15.0179 2.64258L10.6454 2.64258C9.00791 2.64257 7.7053 2.64256 6.65488 2.72979C5.579 2.81914 4.66186 3.0061 3.82405 3.44131C2.52831 4.11439 1.47181 5.17089 0.798732 6.46663C0.363523 7.30444 0.176563 8.22158 0.0872155 9.29746C-1.71928e-05 10.3479 -9.41764e-06 11.6505 2.01404e-07 13.288V16.9384C-9.41764e-06 18.5759 -1.71928e-05 19.8785 0.0872155 20.9289C0.176563 22.0048 0.363523 22.9219 0.798732 23.7597C1.47181 25.0555 2.52831 26.112 3.82405 26.7851C4.66186 27.2203 5.579 27.4072 6.65488 27.4966C7.70529 27.5838 9.00788 27.5838 10.6454 27.5838H14.2957C15.9332 27.5838 17.2359 27.5838 18.2863 27.4966C19.3622 27.4072 20.2794 27.2203 21.1172 26.7851C22.4129 26.112 23.4694 25.0555 24.1425 23.7597C24.5777 22.9219 24.7647 22.0048 24.854 20.9289C24.9412 19.8785 24.9412 18.5759 24.9412 16.9384V12.5658C24.1978 12.8433 23.4001 13.0093 22.5684 13.0436Z" fill="white"/>
<path d="M136.338 22.193V6.02734H147.908V8.38291H139.109V12.8862H145.252V15.1956H139.109V19.8374H148V22.193H136.338Z" fill="white"/>
<path d="M118.769 22.193V6.02734H121.471L129.9 17.7821L129.854 6.02734H132.464V22.193H129.993L121.333 10.1149L121.379 22.193H118.769Z" fill="white"/>
<path d="M107.464 22.4472C106.325 22.4472 105.255 22.2393 104.254 21.8236C103.269 21.3925 102.399 20.7998 101.645 20.0454C100.906 19.2756 100.328 18.3904 99.9126 17.3896C99.4969 16.3735 99.2891 15.2804 99.2891 14.1103C99.2891 12.9402 99.4969 11.8548 99.9126 10.8541C100.328 9.83795 100.906 8.95268 101.645 8.19829C102.399 7.42849 103.269 6.83575 104.254 6.42006C105.255 5.98898 106.325 5.77344 107.464 5.77344C108.604 5.77344 109.666 5.98898 110.651 6.42006C111.652 6.83575 112.522 7.42849 113.261 8.19829C114.015 8.95268 114.6 9.83795 115.016 10.8541C115.432 11.8548 115.639 12.9402 115.639 14.1103C115.639 15.2804 115.432 16.3735 115.016 17.3896C114.6 18.3904 114.015 19.2756 113.261 20.0454C112.522 20.7998 111.652 21.3925 110.651 21.8236C109.666 22.2393 108.604 22.4472 107.464 22.4472ZM107.464 19.953C108.219 19.953 108.919 19.8068 109.566 19.5143C110.212 19.2217 110.774 18.8137 111.252 18.2903C111.744 17.7514 112.122 17.1279 112.383 16.4197C112.66 15.7115 112.799 14.9417 112.799 14.1103C112.799 13.2789 112.66 12.5091 112.383 11.8009C112.122 11.0927 111.744 10.4769 111.252 9.95342C110.774 9.41456 110.212 8.99887 109.566 8.70635C108.919 8.41383 108.219 8.26757 107.464 8.26757C106.71 8.26757 106.009 8.41383 105.363 8.70635C104.716 8.99887 104.146 9.41456 103.654 9.95342C103.161 10.4769 102.776 11.0927 102.499 11.8009C102.237 12.5091 102.107 13.2789 102.107 14.1103C102.107 14.9417 102.237 15.7115 102.499 16.4197C102.776 17.1279 103.161 17.7514 103.654 18.2903C104.146 18.8137 104.716 19.2217 105.363 19.5143C106.009 19.8068 106.71 19.953 107.464 19.953Z" fill="white"/>
<path d="M90.2673 22.193V8.4291H84.8633V6.02734H98.4425V8.4291H93.0385V22.193H90.2673Z" fill="white"/>
<path d="M70.9804 22.193V6.02734H78.1625C79.2249 6.02734 80.164 6.23519 80.98 6.65088C81.796 7.06657 82.4272 7.64391 82.8737 8.38291C83.3356 9.10652 83.5665 9.95329 83.5665 10.9232C83.5665 11.9701 83.274 12.8862 82.6889 13.6714C82.1193 14.4412 81.3418 15.0031 80.3565 15.3572L83.7743 22.193H80.7029L77.5852 15.7267H73.7516V22.193H70.9804ZM73.7516 13.5097H77.9085C78.7707 13.5097 79.4635 13.2788 79.987 12.8169C80.5104 12.3397 80.7722 11.7161 80.7722 10.9463C80.7722 10.1611 80.5104 9.5376 79.987 9.07573C79.4635 8.59845 78.7707 8.35982 77.9085 8.35982H73.7516V13.5097Z" fill="white"/>
<path d="M59.6755 22.4472C58.5362 22.4472 57.4661 22.2393 56.4654 21.8236C55.4801 21.3925 54.6102 20.7998 53.8558 20.0454C53.1168 19.2756 52.5395 18.3904 52.1238 17.3896C51.7081 16.3735 51.5002 15.2804 51.5002 14.1103C51.5002 12.9402 51.7081 11.8548 52.1238 10.8541C52.5395 9.83795 53.1168 8.95268 53.8558 8.19829C54.6102 7.42849 55.4801 6.83575 56.4654 6.42006C57.4661 5.98898 58.5362 5.77344 59.6755 5.77344C60.8147 5.77344 61.8771 5.98898 62.8624 6.42006C63.8631 6.83575 64.733 7.42849 65.472 8.19829C66.2264 8.95268 66.8114 9.83795 67.2271 10.8541C67.6428 11.8548 67.8507 12.9402 67.8507 14.1103C67.8507 15.2804 67.6428 16.3735 67.2271 17.3896C66.8114 18.3904 66.2264 19.2756 65.472 20.0454C64.733 20.7998 63.8631 21.3925 62.8624 21.8236C61.8771 22.2393 60.8147 22.4472 59.6755 22.4472ZM59.6755 19.953C60.4298 19.953 61.1304 19.8068 61.777 19.5143C62.4236 19.2217 62.9856 18.8137 63.4628 18.2903C63.9555 17.7514 64.3327 17.1279 64.5944 16.4197C64.8716 15.7115 65.0101 14.9417 65.0101 14.1103C65.0101 13.2789 64.8716 12.5091 64.5944 11.8009C64.3327 11.0927 63.9555 10.4769 63.4628 9.95342C62.9856 9.41456 62.4236 8.99887 61.777 8.70635C61.1304 8.41383 60.4298 8.26757 59.6755 8.26757C58.9211 8.26757 58.2205 8.41383 57.5739 8.70635C56.9273 8.99887 56.3576 9.41456 55.865 9.95342C55.3723 10.4769 54.9874 11.0927 54.7103 11.8009C54.4486 12.5091 54.3177 13.2789 54.3177 14.1103C54.3177 14.9417 54.4486 15.7115 54.7103 16.4197C54.9874 17.1279 55.3723 17.7514 55.865 18.2903C56.3576 18.8137 56.9273 19.2217 57.5739 19.5143C58.2205 19.8068 58.9211 19.953 59.6755 19.953Z" fill="white"/>
<path d="M36.5652 22.193V6.02734H43.7935C44.8867 6.02734 45.8335 6.24289 46.6341 6.67397C47.4501 7.08966 48.0813 7.6747 48.5278 8.4291C48.9743 9.1835 49.1975 10.0611 49.1975 11.0618C49.1975 12.0163 48.9743 12.8708 48.5278 13.6252C48.0813 14.3796 47.4501 14.9723 46.6341 15.4034C45.8335 15.8191 44.8867 16.027 43.7935 16.027H39.3364V22.193H36.5652ZM39.3364 13.7638H43.3548C44.3401 13.7638 45.0945 13.5174 45.618 13.0248C46.1414 12.5167 46.4031 11.8547 46.4031 11.0387C46.4031 10.2381 46.1414 9.59149 45.618 9.09882C45.0945 8.60615 44.3478 8.35982 43.3779 8.35982H39.3364V13.7638Z" fill="white"/>
</svg>
